# xmcd
#
# Track frame offsets:
#	150
#	15657
#	26578
#	47716
#	61135
#	78175
#	104193
#	121152
#	136863
#	149825
#	167687
#	185620
#	205081
#
# Disc length: 3236 seconds
#
# Revision: 0
# Processed by: cddbd v1.5.2PL0 Copyright (c) Steve Scherf et al.
# Submitted via: EasyCDDAExtractor 10.0.1.1
#
DISCID=b40ca20d
DTITLE=Rickie Lee Jones - The Sermon On Exposition Boulevard
DYEAR=1900
DGENRE=
TTITLE0=Nobody Knows My Name
TTITLE1=Gethsemane
TTITLE2=Falling Up
TTITLE3=Lamp Of The Body
TTITLE4=It Hurts
TTITLE5=Where I Like It Best
TTITLE6=Tried To Be A Man
TTITLE7=Circle In The Sand
TTITLE8=Donkey Ride
TTITLE9=7th Day
TTITLE10=Elvis Cadillac
TTITLE11=Road To Emmaus
TTITLE12=I Was There
EXTD=
EXTT0=
EXTT1=
EXTT2=
EXTT3=
EXTT4=
EXTT5=
EXTT6=
EXTT7=
EXTT8=
EXTT9=
EXTT10=
EXTT11=
EXTT12=
PLAYORDER=
